<svg width="844" height="79" viewBox="0 0 844 79" fill="none" xmlns="http://www.w3.org/2000/svg">
<rect width="844" height="79" rx="5" fill="white" fill-opacity="0.5"/>
<path d="M60.096 33.18C59.112 33.18 58.206 33.018 57.378 32.694C56.55 32.37 55.83 31.92 55.218 31.344C54.606 30.756 54.132 30.072 53.796 29.292C53.46 28.5 53.292 27.636 53.292 26.7C53.292 25.764 53.46 24.906 53.796 24.126C54.132 23.334 54.606 22.65 55.218 22.074C55.83 21.486 56.55 21.03 57.378 20.706C58.206 20.382 59.106 20.22 60.078 20.22C61.062 20.22 61.962 20.382 62.778 20.706C63.606 21.03 64.326 21.486 64.938 22.074C65.55 22.65 66.024 23.334 66.36 24.126C66.696 24.906 66.864 25.764 66.864 26.7C66.864 27.636 66.696 28.5 66.36 29.292C66.024 30.084 65.55 30.768 64.938 31.344C64.326 31.92 63.606 32.37 62.778 32.694C61.962 33.018 61.068 33.18 60.096 33.18ZM60.078 31.128C60.714 31.128 61.302 31.02 61.842 30.804C62.382 30.588 62.85 30.282 63.246 29.886C63.642 29.478 63.948 29.01 64.164 28.482C64.392 27.942 64.506 27.348 64.506 26.7C64.506 26.052 64.392 25.464 64.164 24.936C63.948 24.396 63.642 23.928 63.246 23.532C62.85 23.124 62.382 22.812 61.842 22.596C61.302 22.38 60.714 22.272 60.078 22.272C59.442 22.272 58.854 22.38 58.314 22.596C57.786 22.812 57.318 23.124 56.91 23.532C56.514 23.928 56.202 24.396 55.974 24.936C55.758 25.464 55.65 26.052 55.65 26.7C55.65 27.336 55.758 27.924 55.974 28.464C56.202 29.004 56.514 29.478 56.91 29.886C57.306 30.282 57.774 30.588 58.314 30.804C58.854 31.02 59.442 31.128 60.078 31.128ZM75.1763 33.18C74.2163 33.18 73.3223 33.024 72.4943 32.712C71.6783 32.388 70.9643 31.938 70.3523 31.362C69.7523 30.774 69.2843 30.084 68.9483 29.292C68.6123 28.5 68.4443 27.636 68.4443 26.7C68.4443 25.764 68.6123 24.9 68.9483 24.108C69.2843 23.316 69.7583 22.632 70.3703 22.056C70.9823 21.468 71.6963 21.018 72.5123 20.706C73.3283 20.382 74.2223 20.22 75.1943 20.22C76.2263 20.22 77.1683 20.4 78.0203 20.76C78.8723 21.108 79.5923 21.63 80.1803 22.326L78.6683 23.748C78.2123 23.256 77.7023 22.89 77.1383 22.65C76.5743 22.398 75.9623 22.272 75.3023 22.272C74.6423 22.272 74.0363 22.38 73.4843 22.596C72.9443 22.812 72.4703 23.118 72.0623 23.514C71.6663 23.91 71.3543 24.378 71.1263 24.918C70.9103 25.458 70.8023 26.052 70.8023 26.7C70.8023 27.348 70.9103 27.942 71.1263 28.482C71.3543 29.022 71.6663 29.49 72.0623 29.886C72.4703 30.282 72.9443 30.588 73.4843 30.804C74.0363 31.02 74.6423 31.128 75.3023 31.128C75.9623 31.128 76.5743 31.008 77.1383 30.768C77.7023 30.516 78.2123 30.138 78.6683 29.634L80.1803 31.074C79.5923 31.758 78.8723 32.28 78.0203 32.64C77.1683 33 76.2203 33.18 75.1763 33.18ZM82.4225 33V20.4H87.6065C88.7225 20.4 89.6765 20.58 90.4685 20.94C91.2725 21.3 91.8905 21.816 92.3225 22.488C92.7545 23.16 92.9705 23.958 92.9705 24.882C92.9705 25.806 92.7545 26.604 92.3225 27.276C91.8905 27.936 91.2725 28.446 90.4685 28.806C89.6765 29.154 88.7225 29.328 87.6065 29.328H83.7185L84.7625 28.266V33H82.4225ZM90.6665 33L87.4805 28.428H89.9825L93.1865 33H90.6665ZM84.7625 28.518L83.7185 27.402H87.4985C88.5305 27.402 89.3045 27.18 89.8205 26.736C90.3485 26.292 90.6125 25.674 90.6125 24.882C90.6125 24.078 90.3485 23.46 89.8205 23.028C89.3045 22.596 88.5305 22.38 87.4985 22.38H83.7185L84.7625 21.228V28.518Z" fill="black"/>
<path d="M17.89 62V49.4H19.69V60.434H26.512V62H17.89ZM30.1615 58.958L30.0715 56.762L37.2175 49.4H39.2695L33.7435 55.232L32.7355 56.348L30.1615 58.958ZM28.5775 62V49.4H30.3775V62H28.5775ZM37.5055 62L32.3395 55.988L33.5455 54.656L39.6115 62H37.5055ZM40.291 62V60.776L45.421 55.826C45.877 55.394 46.213 55.016 46.429 54.692C46.657 54.356 46.807 54.05 46.879 53.774C46.963 53.486 47.005 53.21 47.005 52.946C47.005 52.298 46.777 51.788 46.321 51.416C45.865 51.044 45.199 50.858 44.323 50.858C43.651 50.858 43.045 50.972 42.505 51.2C41.965 51.416 41.497 51.758 41.101 52.226L39.877 51.164C40.357 50.552 40.999 50.084 41.803 49.76C42.619 49.424 43.513 49.256 44.485 49.256C45.361 49.256 46.123 49.4 46.771 49.688C47.419 49.964 47.917 50.366 48.265 50.894C48.625 51.422 48.805 52.046 48.805 52.766C48.805 53.174 48.751 53.576 48.643 53.972C48.535 54.368 48.331 54.788 48.031 55.232C47.731 55.676 47.299 56.174 46.735 56.726L42.163 61.136L41.731 60.434H49.345V62H40.291ZM54.6769 62.144C53.7889 62.144 52.9249 62.006 52.0849 61.73C51.2569 61.454 50.5789 61.082 50.0509 60.614L50.8789 59.192C51.2989 59.588 51.8449 59.912 52.5169 60.164C53.1889 60.416 53.9089 60.542 54.6769 60.542C55.6129 60.542 56.3389 60.344 56.8549 59.948C57.3829 59.54 57.6469 58.994 57.6469 58.31C57.6469 57.65 57.3949 57.122 56.8909 56.726C56.3989 56.318 55.6129 56.114 54.5329 56.114H53.5249V54.854L57.2689 50.246L57.5209 50.966H50.6269V49.4H58.9429V50.624L55.2169 55.214L54.2809 54.656H54.8749C56.3989 54.656 57.5389 54.998 58.2949 55.682C59.0629 56.366 59.4469 57.236 59.4469 58.292C59.4469 59 59.2729 59.648 58.9249 60.236C58.5769 60.824 58.0489 61.292 57.3409 61.64C56.6449 61.976 55.7569 62.144 54.6769 62.144ZM67.3717 62.144C65.7157 62.144 64.4137 61.67 63.4657 60.722C62.5177 59.774 62.0437 58.388 62.0437 56.564V49.4H63.8437V56.492C63.8437 57.896 64.1497 58.922 64.7617 59.57C65.3857 60.218 66.2617 60.542 67.3897 60.542C68.5297 60.542 69.4057 60.218 70.0177 59.57C70.6417 58.922 70.9537 57.896 70.9537 56.492V49.4H72.6997V56.564C72.6997 58.388 72.2257 59.774 71.2777 60.722C70.3417 61.67 69.0397 62.144 67.3717 62.144ZM77.974 58.958L77.884 56.762L85.03 49.4H87.082L81.556 55.232L80.548 56.348L77.974 58.958ZM76.39 62V49.4H78.19V62H76.39ZM85.318 62L80.152 55.988L81.358 54.656L87.424 62H85.318ZM88.1035 62V60.776L93.2335 55.826C93.6895 55.394 94.0255 55.016 94.2415 54.692C94.4695 54.356 94.6195 54.05 94.6915 53.774C94.7755 53.486 94.8175 53.21 94.8175 52.946C94.8175 52.298 94.5895 51.788 94.1335 51.416C93.6775 51.044 93.0115 50.858 92.1355 50.858C91.4635 50.858 90.8575 50.972 90.3175 51.2C89.7775 51.416 89.3095 51.758 88.9135 52.226L87.6895 51.164C88.1695 50.552 88.8115 50.084 89.6155 49.76C90.4315 49.424 91.3255 49.256 92.2975 49.256C93.1735 49.256 93.9355 49.4 94.5835 49.688C95.2315 49.964 95.7295 50.366 96.0775 50.894C96.4375 51.422 96.6175 52.046 96.6175 52.766C96.6175 53.174 96.5635 53.576 96.4555 53.972C96.3475 54.368 96.1435 54.788 95.8435 55.232C95.5435 55.676 95.1115 56.174 94.5475 56.726L89.9755 61.136L89.5435 60.434H97.1575V62H88.1035ZM102.489 62.144C101.601 62.144 100.737 62.006 99.8974 61.73C99.0694 61.454 98.3914 61.082 97.8634 60.614L98.6914 59.192C99.1114 59.588 99.6574 59.912 100.329 60.164C101.001 60.416 101.721 60.542 102.489 60.542C103.425 60.542 104.151 60.344 104.667 59.948C105.195 59.54 105.459 58.994 105.459 58.31C105.459 57.65 105.207 57.122 104.703 56.726C104.211 56.318 103.425 56.114 102.345 56.114H101.337V54.854L105.081 50.246L105.333 50.966H98.4394V49.4H106.755V50.624L103.029 55.214L102.093 54.656H102.687C104.211 54.656 105.351 54.998 106.107 55.682C106.875 56.366 107.259 57.236 107.259 58.292C107.259 59 107.085 59.648 106.737 60.236C106.389 60.824 105.861 61.292 105.153 61.64C104.457 61.976 103.569 62.144 102.489 62.144ZM108.758 58.904V57.644L115.202 49.4H117.146L110.756 57.644L109.838 57.356H119.9V58.904H108.758ZM115.76 62V58.904L115.814 57.356V54.62H117.506V62H115.76ZM125.03 62.144C124.142 62.144 123.278 62.006 122.438 61.73C121.61 61.454 120.932 61.082 120.404 60.614L121.232 59.192C121.652 59.588 122.198 59.912 122.87 60.164C123.542 60.416 124.256 60.542 125.012 60.542C125.972 60.542 126.71 60.338 127.226 59.93C127.742 59.522 128 58.976 128 58.292C128 57.824 127.886 57.416 127.658 57.068C127.43 56.72 127.034 56.456 126.47 56.276C125.918 56.084 125.156 55.988 124.184 55.988H121.322L121.988 49.4H129.098V50.966H122.654L123.59 50.084L123.068 55.286L122.132 54.422H124.562C125.822 54.422 126.836 54.584 127.604 54.908C128.372 55.232 128.93 55.682 129.278 56.258C129.626 56.822 129.8 57.476 129.8 58.22C129.8 58.94 129.626 59.6 129.278 60.2C128.93 60.788 128.402 61.262 127.694 61.622C126.998 61.97 126.11 62.144 125.03 62.144Z" fill="black"/>
<path d="M376.098 33.18C375.114 33.18 374.172 33.042 373.272 32.766C372.372 32.478 371.658 32.112 371.13 31.668L371.94 29.85C372.444 30.246 373.068 30.576 373.812 30.84C374.556 31.104 375.318 31.236 376.098 31.236C376.758 31.236 377.292 31.164 377.7 31.02C378.108 30.876 378.408 30.684 378.6 30.444C378.792 30.192 378.888 29.91 378.888 29.598C378.888 29.214 378.75 28.908 378.474 28.68C378.198 28.44 377.838 28.254 377.394 28.122C376.962 27.978 376.476 27.846 375.936 27.726C375.408 27.606 374.874 27.468 374.334 27.312C373.806 27.144 373.32 26.934 372.876 26.682C372.444 26.418 372.09 26.07 371.814 25.638C371.538 25.206 371.4 24.654 371.4 23.982C371.4 23.298 371.58 22.674 371.94 22.11C372.312 21.534 372.87 21.078 373.614 20.742C374.37 20.394 375.324 20.22 376.476 20.22C377.232 20.22 377.982 20.316 378.726 20.508C379.47 20.7 380.118 20.976 380.67 21.336L379.932 23.154C379.368 22.818 378.786 22.572 378.186 22.416C377.586 22.248 377.01 22.164 376.458 22.164C375.81 22.164 375.282 22.242 374.874 22.398C374.478 22.554 374.184 22.758 373.992 23.01C373.812 23.262 373.722 23.55 373.722 23.874C373.722 24.258 373.854 24.57 374.118 24.81C374.394 25.038 374.748 25.218 375.18 25.35C375.624 25.482 376.116 25.614 376.656 25.746C377.196 25.866 377.73 26.004 378.258 26.16C378.798 26.316 379.284 26.52 379.716 26.772C380.16 27.024 380.514 27.366 380.778 27.798C381.054 28.23 381.192 28.776 381.192 29.436C381.192 30.108 381.006 30.732 380.634 31.308C380.274 31.872 379.716 32.328 378.96 32.676C378.204 33.012 377.25 33.18 376.098 33.18ZM388.624 33.126C387.844 33.126 387.13 32.946 386.482 32.586C385.846 32.226 385.336 31.686 384.952 30.966C384.58 30.234 384.394 29.31 384.394 28.194C384.394 27.066 384.574 26.142 384.934 25.422C385.306 24.702 385.81 24.168 386.446 23.82C387.082 23.46 387.808 23.28 388.624 23.28C389.572 23.28 390.406 23.484 391.126 23.892C391.858 24.3 392.434 24.87 392.854 25.602C393.286 26.334 393.502 27.198 393.502 28.194C393.502 29.19 393.286 30.06 392.854 30.804C392.434 31.536 391.858 32.106 391.126 32.514C390.406 32.922 389.572 33.126 388.624 33.126ZM383.296 36.492V23.388H385.438V25.656L385.366 28.212L385.546 30.768V36.492H383.296ZM388.372 31.2C388.912 31.2 389.392 31.08 389.812 30.84C390.244 30.6 390.586 30.252 390.838 29.796C391.09 29.34 391.216 28.806 391.216 28.194C391.216 27.57 391.09 27.036 390.838 26.592C390.586 26.136 390.244 25.788 389.812 25.548C389.392 25.308 388.912 25.188 388.372 25.188C387.832 25.188 387.346 25.308 386.914 25.548C386.482 25.788 386.14 26.136 385.888 26.592C385.636 27.036 385.51 27.57 385.51 28.194C385.51 28.806 385.636 29.34 385.888 29.796C386.14 30.252 386.482 30.6 386.914 30.84C387.346 31.08 387.832 31.2 388.372 31.2ZM400.154 33.126C399.086 33.126 398.15 32.916 397.346 32.496C396.554 32.064 395.936 31.476 395.492 30.732C395.06 29.988 394.844 29.142 394.844 28.194C394.844 27.234 395.054 26.388 395.474 25.656C395.906 24.912 396.494 24.33 397.238 23.91C397.994 23.49 398.852 23.28 399.812 23.28C400.748 23.28 401.582 23.484 402.314 23.892C403.046 24.3 403.622 24.876 404.042 25.62C404.462 26.364 404.672 27.24 404.672 28.248C404.672 28.344 404.666 28.452 404.654 28.572C404.654 28.692 404.648 28.806 404.636 28.914H396.626V27.42H403.448L402.566 27.888C402.578 27.336 402.464 26.85 402.224 26.43C401.984 26.01 401.654 25.68 401.234 25.44C400.826 25.2 400.352 25.08 399.812 25.08C399.26 25.08 398.774 25.2 398.354 25.44C397.946 25.68 397.622 26.016 397.382 26.448C397.154 26.868 397.04 27.366 397.04 27.942V28.302C397.04 28.878 397.172 29.388 397.436 29.832C397.7 30.276 398.072 30.618 398.552 30.858C399.032 31.098 399.584 31.218 400.208 31.218C400.748 31.218 401.234 31.134 401.666 30.966C402.098 30.798 402.482 30.534 402.818 30.174L404.024 31.56C403.592 32.064 403.046 32.454 402.386 32.73C401.738 32.994 400.994 33.126 400.154 33.126ZM411.351 33.126C410.283 33.126 409.347 32.916 408.543 32.496C407.751 32.064 407.133 31.476 406.689 30.732C406.257 29.988 406.041 29.142 406.041 28.194C406.041 27.234 406.251 26.388 406.671 25.656C407.103 24.912 407.691 24.33 408.435 23.91C409.191 23.49 410.049 23.28 411.009 23.28C411.945 23.28 412.779 23.484 413.511 23.892C414.243 24.3 414.819 24.876 415.239 25.62C415.659 26.364 415.869 27.24 415.869 28.248C415.869 28.344 415.863 28.452 415.851 28.572C415.851 28.692 415.845 28.806 415.833 28.914H407.823V27.42H414.645L413.763 27.888C413.775 27.336 413.661 26.85 413.421 26.43C413.181 26.01 412.851 25.68 412.431 25.44C412.023 25.2 411.549 25.08 411.009 25.08C410.457 25.08 409.971 25.2 409.551 25.44C409.143 25.68 408.819 26.016 408.579 26.448C408.351 26.868 408.237 27.366 408.237 27.942V28.302C408.237 28.878 408.369 29.388 408.633 29.832C408.897 30.276 409.269 30.618 409.749 30.858C410.229 31.098 410.781 31.218 411.405 31.218C411.945 31.218 412.431 31.134 412.863 30.966C413.295 30.798 413.679 30.534 414.015 30.174L415.221 31.56C414.789 32.064 414.243 32.454 413.583 32.73C412.935 32.994 412.191 33.126 411.351 33.126ZM422.099 33.126C421.175 33.126 420.341 32.922 419.597 32.514C418.865 32.094 418.289 31.518 417.869 30.786C417.449 30.054 417.239 29.19 417.239 28.194C417.239 27.198 417.449 26.334 417.869 25.602C418.289 24.87 418.865 24.3 419.597 23.892C420.341 23.484 421.175 23.28 422.099 23.28C422.903 23.28 423.623 23.46 424.259 23.82C424.895 24.168 425.399 24.702 425.771 25.422C426.143 26.142 426.329 27.066 426.329 28.194C426.329 29.31 426.149 30.234 425.789 30.966C425.429 31.686 424.931 32.226 424.295 32.586C423.659 32.946 422.927 33.126 422.099 33.126ZM422.369 31.2C422.909 31.2 423.389 31.08 423.809 30.84C424.241 30.6 424.583 30.252 424.835 29.796C425.099 29.34 425.231 28.806 425.231 28.194C425.231 27.57 425.099 27.036 424.835 26.592C424.583 26.136 424.241 25.788 423.809 25.548C423.389 25.308 422.909 25.188 422.369 25.188C421.829 25.188 421.343 25.308 420.911 25.548C420.491 25.788 420.149 26.136 419.885 26.592C419.633 27.036 419.507 27.57 419.507 28.194C419.507 28.806 419.633 29.34 419.885 29.796C420.149 30.252 420.491 30.6 420.911 30.84C421.343 31.08 421.829 31.2 422.369 31.2ZM425.285 33V30.732L425.375 28.176L425.195 25.62V19.644H427.427V33H425.285Z" fill="black"/>
<path d="M361.932 62.144C361.044 62.144 360.18 62.006 359.34 61.73C358.512 61.454 357.834 61.082 357.306 60.614L358.134 59.192C358.554 59.588 359.1 59.912 359.772 60.164C360.444 60.416 361.158 60.542 361.914 60.542C362.874 60.542 363.612 60.338 364.128 59.93C364.644 59.522 364.902 58.976 364.902 58.292C364.902 57.824 364.788 57.416 364.56 57.068C364.332 56.72 363.936 56.456 363.372 56.276C362.82 56.084 362.058 55.988 361.086 55.988H358.224L358.89 49.4H366V50.966H359.556L360.492 50.084L359.97 55.286L359.034 54.422H361.464C362.724 54.422 363.738 54.584 364.506 54.908C365.274 55.232 365.832 55.682 366.18 56.258C366.528 56.822 366.702 57.476 366.702 58.22C366.702 58.94 366.528 59.6 366.18 60.2C365.832 60.788 365.304 61.262 364.596 61.622C363.9 61.97 363.012 62.144 361.932 62.144ZM373.348 62.144C372.364 62.144 371.482 61.892 370.702 61.388C369.934 60.884 369.322 60.152 368.866 59.192C368.422 58.232 368.2 57.068 368.2 55.7C368.2 54.332 368.422 53.168 368.866 52.208C369.322 51.248 369.934 50.516 370.702 50.012C371.482 49.508 372.364 49.256 373.348 49.256C374.32 49.256 375.196 49.508 375.976 50.012C376.756 50.516 377.368 51.248 377.812 52.208C378.256 53.168 378.478 54.332 378.478 55.7C378.478 57.068 378.256 58.232 377.812 59.192C377.368 60.152 376.756 60.884 375.976 61.388C375.196 61.892 374.32 62.144 373.348 62.144ZM373.348 60.542C374.008 60.542 374.584 60.362 375.076 60.002C375.58 59.642 375.97 59.102 376.246 58.382C376.534 57.662 376.678 56.768 376.678 55.7C376.678 54.632 376.534 53.738 376.246 53.018C375.97 52.298 375.58 51.758 375.076 51.398C374.584 51.038 374.008 50.858 373.348 50.858C372.688 50.858 372.106 51.038 371.602 51.398C371.098 51.758 370.702 52.298 370.414 53.018C370.138 53.738 370 54.632 370 55.7C370 56.768 370.138 57.662 370.414 58.382C370.702 59.102 371.098 59.642 371.602 60.002C372.106 60.362 372.688 60.542 373.348 60.542ZM387.65 58.958L387.56 56.762L394.706 49.4H396.758L391.232 55.232L390.224 56.348L387.65 58.958ZM386.066 62V49.4H387.866V62H386.066ZM394.994 62L389.828 55.988L391.034 54.656L397.1 62H394.994ZM399.003 62V49.4H400.479L406.131 58.922H405.339L410.919 49.4H412.395L412.413 62H410.685L410.667 52.118H411.081L406.113 60.47H405.285L400.281 52.118H400.731V62H399.003ZM413.801 63.8L419.741 46.844H421.307L415.367 63.8H413.801ZM431.559 49.4H433.359V62H431.559V49.4ZM424.323 62H422.523V49.4H424.323V62ZM431.721 56.384H424.143V54.818H431.721V56.384ZM436.878 62V52.46H438.534V55.052L438.372 54.404C438.636 53.744 439.08 53.24 439.704 52.892C440.328 52.544 441.096 52.37 442.008 52.37V54.044C441.936 54.032 441.864 54.026 441.792 54.026C441.732 54.026 441.672 54.026 441.612 54.026C440.688 54.026 439.956 54.302 439.416 54.854C438.876 55.406 438.606 56.204 438.606 57.248V62H436.878Z" fill="black"/>
<path d="M743.692 33V20.4H749.2C750.568 20.4 751.768 20.664 752.8 21.192C753.832 21.72 754.636 22.452 755.212 23.388C755.788 24.324 756.076 25.428 756.076 26.7C756.076 27.96 755.788 29.064 755.212 30.012C754.636 30.948 753.832 31.68 752.8 32.208C751.768 32.736 750.568 33 749.2 33H743.692ZM746.032 31.02H749.092C750.04 31.02 750.856 30.84 751.54 30.48C752.236 30.12 752.77 29.616 753.142 28.968C753.526 28.32 753.718 27.564 753.718 26.7C753.718 25.824 753.526 25.068 753.142 24.432C752.77 23.784 752.236 23.28 751.54 22.92C750.856 22.56 750.04 22.38 749.092 22.38H746.032V31.02ZM758.347 33V23.388H760.597V33H758.347ZM759.481 21.804C759.061 21.804 758.713 21.672 758.437 21.408C758.173 21.144 758.041 20.826 758.041 20.454C758.041 20.07 758.173 19.752 758.437 19.5C758.713 19.236 759.061 19.104 759.481 19.104C759.901 19.104 760.243 19.23 760.507 19.482C760.783 19.722 760.921 20.028 760.921 20.4C760.921 20.796 760.789 21.132 760.525 21.408C760.261 21.672 759.913 21.804 759.481 21.804ZM766.52 33.126C765.716 33.126 764.942 33.024 764.198 32.82C763.466 32.604 762.884 32.346 762.452 32.046L763.316 30.336C763.748 30.612 764.264 30.84 764.864 31.02C765.464 31.2 766.064 31.29 766.664 31.29C767.372 31.29 767.882 31.194 768.194 31.002C768.518 30.81 768.68 30.552 768.68 30.228C768.68 29.964 768.572 29.766 768.356 29.634C768.14 29.49 767.858 29.382 767.51 29.31C767.162 29.238 766.772 29.172 766.34 29.112C765.92 29.052 765.494 28.974 765.062 28.878C764.642 28.77 764.258 28.62 763.91 28.428C763.562 28.224 763.28 27.954 763.064 27.618C762.848 27.282 762.74 26.838 762.74 26.286C762.74 25.674 762.914 25.146 763.262 24.702C763.61 24.246 764.096 23.898 764.72 23.658C765.356 23.406 766.106 23.28 766.97 23.28C767.618 23.28 768.272 23.352 768.932 23.496C769.592 23.64 770.138 23.844 770.57 24.108L769.706 25.818C769.25 25.542 768.788 25.356 768.32 25.26C767.864 25.152 767.408 25.098 766.952 25.098C766.268 25.098 765.758 25.2 765.422 25.404C765.098 25.608 764.936 25.866 764.936 26.178C764.936 26.466 765.044 26.682 765.26 26.826C765.476 26.97 765.758 27.084 766.106 27.168C766.454 27.252 766.838 27.324 767.258 27.384C767.69 27.432 768.116 27.51 768.536 27.618C768.956 27.726 769.34 27.876 769.688 28.068C770.048 28.248 770.336 28.506 770.552 28.842C770.768 29.178 770.876 29.616 770.876 30.156C770.876 30.756 770.696 31.278 770.336 31.722C769.988 32.166 769.49 32.514 768.842 32.766C768.194 33.006 767.42 33.126 766.52 33.126ZM776.432 33.126C775.376 33.126 774.56 32.856 773.984 32.316C773.408 31.764 773.12 30.954 773.12 29.886V21.264H775.37V29.832C775.37 30.288 775.484 30.642 775.712 30.894C775.952 31.146 776.282 31.272 776.702 31.272C777.206 31.272 777.626 31.14 777.962 30.876L778.592 32.478C778.328 32.694 778.004 32.856 777.62 32.964C777.236 33.072 776.84 33.126 776.432 33.126ZM771.536 25.26V23.46H777.944V25.26H771.536ZM786.365 33V31.056L786.239 30.642V27.24C786.239 26.58 786.041 26.07 785.645 25.71C785.249 25.338 784.649 25.152 783.845 25.152C783.305 25.152 782.771 25.236 782.243 25.404C781.727 25.572 781.289 25.806 780.929 26.106L780.047 24.468C780.563 24.072 781.175 23.778 781.883 23.586C782.603 23.382 783.347 23.28 784.115 23.28C785.507 23.28 786.581 23.616 787.337 24.288C788.105 24.948 788.489 25.974 788.489 27.366V33H786.365ZM783.341 33.126C782.621 33.126 781.991 33.006 781.451 32.766C780.911 32.514 780.491 32.172 780.191 31.74C779.903 31.296 779.759 30.798 779.759 30.246C779.759 29.706 779.885 29.22 780.137 28.788C780.401 28.356 780.827 28.014 781.415 27.762C782.003 27.51 782.783 27.384 783.755 27.384H786.545V28.878H783.917C783.149 28.878 782.633 29.004 782.369 29.256C782.105 29.496 781.973 29.796 781.973 30.156C781.973 30.564 782.135 30.888 782.459 31.128C782.783 31.368 783.233 31.488 783.809 31.488C784.361 31.488 784.853 31.362 785.285 31.11C785.729 30.858 786.047 30.486 786.239 29.994L786.617 31.344C786.401 31.908 786.011 32.346 785.447 32.658C784.895 32.97 784.193 33.126 783.341 33.126ZM796.83 23.28C797.598 23.28 798.282 23.43 798.882 23.73C799.494 24.03 799.974 24.492 800.322 25.116C800.67 25.728 800.844 26.52 800.844 27.492V33H798.594V27.78C798.594 26.928 798.39 26.292 797.982 25.872C797.586 25.452 797.028 25.242 796.308 25.242C795.78 25.242 795.312 25.35 794.904 25.566C794.496 25.782 794.178 26.106 793.95 26.538C793.734 26.958 793.626 27.492 793.626 28.14V33H791.376V23.388H793.518V25.98L793.14 25.188C793.476 24.576 793.962 24.108 794.598 23.784C795.246 23.448 795.99 23.28 796.83 23.28ZM808.126 33.126C807.118 33.126 806.218 32.916 805.426 32.496C804.646 32.064 804.034 31.476 803.59 30.732C803.146 29.988 802.924 29.142 802.924 28.194C802.924 27.234 803.146 26.388 803.59 25.656C804.034 24.912 804.646 24.33 805.426 23.91C806.218 23.49 807.118 23.28 808.126 23.28C809.062 23.28 809.884 23.472 810.592 23.856C811.312 24.228 811.858 24.78 812.23 25.512L810.502 26.52C810.214 26.064 809.86 25.728 809.44 25.512C809.032 25.296 808.588 25.188 808.108 25.188C807.556 25.188 807.058 25.308 806.614 25.548C806.17 25.788 805.822 26.136 805.57 26.592C805.318 27.036 805.192 27.57 805.192 28.194C805.192 28.818 805.318 29.358 805.57 29.814C805.822 30.258 806.17 30.6 806.614 30.84C807.058 31.08 807.556 31.2 808.108 31.2C808.588 31.2 809.032 31.092 809.44 30.876C809.86 30.66 810.214 30.324 810.502 29.868L812.23 30.876C811.858 31.596 811.312 32.154 810.592 32.55C809.884 32.934 809.062 33.126 808.126 33.126ZM818.553 33.126C817.485 33.126 816.549 32.916 815.745 32.496C814.953 32.064 814.335 31.476 813.891 30.732C813.459 29.988 813.243 29.142 813.243 28.194C813.243 27.234 813.453 26.388 813.873 25.656C814.305 24.912 814.893 24.33 815.637 23.91C816.393 23.49 817.251 23.28 818.211 23.28C819.147 23.28 819.981 23.484 820.713 23.892C821.445 24.3 822.021 24.876 822.441 25.62C822.861 26.364 823.071 27.24 823.071 28.248C823.071 28.344 823.065 28.452 823.053 28.572C823.053 28.692 823.047 28.806 823.035 28.914H815.025V27.42H821.847L820.965 27.888C820.977 27.336 820.863 26.85 820.623 26.43C820.383 26.01 820.053 25.68 819.633 25.44C819.225 25.2 818.751 25.08 818.211 25.08C817.659 25.08 817.173 25.2 816.753 25.44C816.345 25.68 816.021 26.016 815.781 26.448C815.553 26.868 815.439 27.366 815.439 27.942V28.302C815.439 28.878 815.571 29.388 815.835 29.832C816.099 30.276 816.471 30.618 816.951 30.858C817.431 31.098 817.983 31.218 818.607 31.218C819.147 31.218 819.633 31.134 820.065 30.966C820.497 30.798 820.881 30.534 821.217 30.174L822.423 31.56C821.991 32.064 821.445 32.454 820.785 32.73C820.137 32.994 819.393 33.126 818.553 33.126Z" fill="black"/>
<path d="M764.216 62.144C763.328 62.144 762.464 62.006 761.624 61.73C760.796 61.454 760.118 61.082 759.59 60.614L760.418 59.192C760.838 59.588 761.384 59.912 762.056 60.164C762.728 60.416 763.448 60.542 764.216 60.542C765.152 60.542 765.878 60.344 766.394 59.948C766.922 59.54 767.186 58.994 767.186 58.31C767.186 57.65 766.934 57.122 766.43 56.726C765.938 56.318 765.152 56.114 764.072 56.114H763.064V54.854L766.808 50.246L767.06 50.966H760.166V49.4H768.482V50.624L764.756 55.214L763.82 54.656H764.414C765.938 54.656 767.078 54.998 767.834 55.682C768.602 56.366 768.986 57.236 768.986 58.292C768.986 59 768.812 59.648 768.464 60.236C768.116 60.824 767.588 61.292 766.88 61.64C766.184 61.976 765.296 62.144 764.216 62.144ZM775.813 62.144C774.829 62.144 773.947 61.892 773.167 61.388C772.399 60.884 771.787 60.152 771.331 59.192C770.887 58.232 770.665 57.068 770.665 55.7C770.665 54.332 770.887 53.168 771.331 52.208C771.787 51.248 772.399 50.516 773.167 50.012C773.947 49.508 774.829 49.256 775.813 49.256C776.785 49.256 777.661 49.508 778.441 50.012C779.221 50.516 779.833 51.248 780.277 52.208C780.721 53.168 780.943 54.332 780.943 55.7C780.943 57.068 780.721 58.232 780.277 59.192C779.833 60.152 779.221 60.884 778.441 61.388C777.661 61.892 776.785 62.144 775.813 62.144ZM775.813 60.542C776.473 60.542 777.049 60.362 777.541 60.002C778.045 59.642 778.435 59.102 778.711 58.382C778.999 57.662 779.143 56.768 779.143 55.7C779.143 54.632 778.999 53.738 778.711 53.018C778.435 52.298 778.045 51.758 777.541 51.398C777.049 51.038 776.473 50.858 775.813 50.858C775.153 50.858 774.571 51.038 774.067 51.398C773.563 51.758 773.167 52.298 772.879 53.018C772.603 53.738 772.465 54.632 772.465 55.7C772.465 56.768 772.603 57.662 772.879 58.382C773.167 59.102 773.563 59.642 774.067 60.002C774.571 60.362 775.153 60.542 775.813 60.542ZM800.213 52.37C800.981 52.37 801.659 52.52 802.247 52.82C802.835 53.12 803.291 53.576 803.615 54.188C803.951 54.8 804.119 55.574 804.119 56.51V62H802.391V56.708C802.391 55.784 802.175 55.088 801.743 54.62C801.311 54.152 800.705 53.918 799.925 53.918C799.349 53.918 798.845 54.038 798.413 54.278C797.981 54.518 797.645 54.872 797.405 55.34C797.177 55.808 797.063 56.39 797.063 57.086V62H795.335V56.708C795.335 55.784 795.119 55.088 794.687 54.62C794.267 54.152 793.661 53.918 792.869 53.918C792.305 53.918 791.807 54.038 791.375 54.278C790.943 54.518 790.607 54.872 790.367 55.34C790.127 55.808 790.007 56.39 790.007 57.086V62H788.279V52.46H789.935V54.998L789.665 54.35C789.965 53.726 790.427 53.24 791.051 52.892C791.675 52.544 792.401 52.37 793.229 52.37C794.141 52.37 794.927 52.598 795.587 53.054C796.247 53.498 796.679 54.176 796.883 55.088L796.181 54.8C796.469 54.068 796.973 53.48 797.693 53.036C798.413 52.592 799.253 52.37 800.213 52.37Z" fill="black"/>
</svg>
